<?xml version="1.0" encoding="utf-8"?>
<!-- Generator: Adobe Illustrator 19.2.1, SVG Export Plug-In . SVG Version: 6.00 Build 0)  -->
<svg version="1.1" id="Layer_1" xmlns="http://www.w3.org/2000/svg" xmlns:xlink="http://www.w3.org/1999/xlink" x="0px" y="0px"
	 viewBox="0 0 100 100" style="enable-background:new 0 0 100 100;" xml:space="preserve">
<style type="text/css">
	.st0{fill:#323232;}
</style>
<g>
	<path class="st0" d="M49.2,36.9c-2.9,0-5.3,1.3-7.1,4c-2.5,3.7-3.8,8-3.8,12.6c0,3,0.6,5.2,1.9,6.6c1.2,1.4,2.8,2.1,4.6,2.1
		c1.6,0,3.1-0.5,4.5-1.5c1.8-1.3,3.3-3.4,4.6-6.5c1.3-3,1.9-6.1,1.9-9.2c0-2.6-0.6-4.7-1.9-6.1C52.6,37.6,51.1,36.9,49.2,36.9z"/>
	<path class="st0" d="M50,0C22.4,0,0,22.4,0,50s22.4,50,50,50s50-22.4,50-50S77.6,0,50,0z M72.5,79.6c-5.3,2.7-11.8,4.1-19.6,4.1
		c-7.9,0-14.5-1.3-20-3.8c-5.4-2.5-9.7-6.2-12.7-11c-3-4.8-4.6-10.6-4.6-17.4c0-7,1.7-13.2,5-18.8c3.3-5.5,7.7-9.7,13.1-12.4
		c5.4-2.7,11.5-4.1,18.4-4.1c5.9,0,11.1,1.1,15.6,3.3c4.6,2.2,8.1,5.4,10.8,9.6c2.6,4.2,3.9,8.9,3.9,14.2c0,6.1-2,11.7-5.9,16.6
		c-4.6,5.8-10.5,8.7-17.6,8.7c-1.9,0-3.4-0.3-4.4-0.9c-1-0.6-1.7-1.7-2.1-3.1c-2.8,2.7-6,4-9.7,4c-3.8,0-7.1-1.3-9.7-3.9
		c-2.7-2.6-4-6.2-4-10.7c0-4.5,1-8.6,3.1-12.5c2.1-3.9,4.5-6.7,7.2-8.4c2.8-1.7,5.8-2.6,9-2.6c2.1,0,3.9,0.4,5.5,1.2
		c1.6,0.8,2.8,2,3.9,3.6l0.9-3.9H68l-5.3,25.2c-0.3,1.6-0.5,2.7-0.5,3.2c0,0.5,0.1,1,0.4,1.2c0.3,0.3,0.6,0.4,1,0.4
		c1.1,0,2.5-0.7,4.3-2c2.4-1.7,4.4-4.1,5.9-7.1c1.5-3,2.3-6.1,2.3-9.4c0-3.9-1-7.5-3.1-10.7c-2.1-3.2-4.9-5.6-8.3-7.2
		c-3.5-1.6-7.6-2.4-12.6-2.4c-5.8,0-10.9,1.1-15.3,3.4c-4.4,2.2-7.9,5.7-10.5,10.3c-2.7,4.6-4,9.9-4,15.9c0,5.1,1.3,9.6,3.8,13.5
		c2.5,3.9,6,6.8,10.3,8.8c4.4,2,9.7,2.9,16,2.9c5.7,0,10.5-0.8,14.6-2.3c4.1-1.6,7.4-3.9,9.8-7h7.5C81.8,73,77.8,76.9,72.5,79.6z"/>
</g>
</svg>
