<?xml version="1.0" encoding="utf-8"?>
<!-- Generator: Adobe Illustrator 19.2.1, SVG Export Plug-In . SVG Version: 6.00 Build 0)  -->
<svg version="1.1" id="Layer_1" xmlns="http://www.w3.org/2000/svg" xmlns:xlink="http://www.w3.org/1999/xlink" x="0px" y="0px"
	 viewBox="0 0 512 512" style="enable-background:new 0 0 512 512;" xml:space="preserve">
<style type="text/css">
	.st0{fill:#323232;}
</style>
<g>
	<path class="st0" d="M282.7,226.4v-0.6c-0.1,0.2-0.3,0.4-0.4,0.6H282.7z"/>
	<path class="st0" d="M256,6.9C117.9,6.9,6,118.8,6,256.9c0,138.1,111.9,250,250,250c138.1,0,250-111.9,250-250
		C506,118.8,394.1,6.9,256,6.9z M189.9,380.1h-59.7V200.3h59.7V380.1z M160,175.8h-0.4c-20.1,0-33-13.8-33-31
		c0-17.6,13.4-31.1,33.8-31.1c20.4,0,33,13.4,33.4,31.1C193.9,162,180.9,175.8,160,175.8z M405.4,380.1h-59.8v-96.2
		c0-24.2-8.6-40.6-30.3-40.6c-16.5,0-26.3,11.1-30.6,21.9c-1.6,3.8-2,9.2-2,14.6v100.4h-59.8c0,0,0.8-162.9,0-179.7h59.8v25.5
		c7.9-12.2,22.1-29.7,53.9-29.7c39.3,0,68.8,25.7,68.8,80.9V380.1z"/>
</g>
</svg>
