<?xml version="1.0" encoding="utf-8"?>
<!-- Generator: Adobe Illustrator 19.2.1, SVG Export Plug-In . SVG Version: 6.00 Build 0)  -->
<svg version="1.1" id="Layer_1" xmlns="http://www.w3.org/2000/svg" xmlns:xlink="http://www.w3.org/1999/xlink" x="0px" y="0px"
	 viewBox="0 0 40 40" style="enable-background:new 0 0 40 40;" xml:space="preserve">
<style type="text/css">
	.st0{fill:#323232;}
</style>
<g>
	<path class="st0" d="M22,8c0,0-3.6,0-4.8,0c-5.7,0.3-8.4,3.7-8.4,8.3v4.1c-0.1,3.4,2,6.5,5.2,7.6v4.9c0,0.1,0.1,0.2,0.2,0.2
		c0.1,0,0.1,0,0.2-0.1l2.2-2.5l1.8-2.1h4.2c4.9,0,8.6-3,8.6-7.4l0-4.8C31.2,10.9,28,8,22,8z M26.5,24.1
		C26.5,24.2,26.5,24.2,26.5,24.1l-0.4,0.6c-0.8,1-2.2,1.4-3.3,0.8c-2.1-0.9-4.1-2.2-5.7-3.8c-1.3-1.5-2.5-3.2-3.4-4.9L12.8,15
		c-0.3-0.6-0.2-1.3,0.2-1.8c0.1-0.1,0.2-0.3,0.3-0.4c0.2-0.2,0.9-0.8,0.9-0.8c0.5-0.4,1.2-0.3,1.7,0.2c0,0,0,0,0,0l1.6,2.1
		c0.4,0.5,0.3,1.2-0.1,1.6l-0.8,0.8c-0.2,0.2-0.3,0.5-0.2,0.8c0.3,0.9,0.8,1.7,1.5,2.4c0.8,0.7,1.6,1.4,2.5,1.9
		c0.4,0.3,1,0.2,1.4-0.2l0.7-0.7c0.4-0.4,1-0.5,1.5-0.2l2.1,1.4C26.7,22.7,26.9,23.5,26.5,24.1z M20.3,13.4h-0.2c0,0,0,0,0,0
		c-0.1,0-0.3-0.1-0.3-0.3c0-0.1,0.1-0.3,0.3-0.3h0.2c2.7,0,5,2.3,5,5c0,0.1,0,0.3,0,0.4h0c0,0.1-0.1,0.2-0.3,0.2c0,0,0,0,0,0
		c-0.1,0-0.2-0.1-0.2-0.3c0-0.1,0-0.3,0-0.4C24.8,15.4,22.8,13.4,20.3,13.4z M20.7,15.2L20.7,15.2C20.6,15.2,20.6,15.2,20.7,15.2
		C20.6,15.2,20.6,15.2,20.7,15.2h-0.1c0,0,0,0,0,0c-0.1,0-0.3-0.1-0.3-0.2c0-0.1,0.1-0.3,0.2-0.3h0h0.1h0c1.5,0,2.7,1.2,2.7,2.7
		c0,0.1,0,0.2,0,0.3h0c0,0,0,0,0,0c0,0,0,0,0,0c0,0,0,0,0,0.1c0,0,0,0.1-0.1,0.1c0,0,0,0,0,0c0,0-0.1,0-0.2,0c0,0,0,0,0,0
		c0,0,0,0,0,0c0,0,0,0,0,0c0,0,0,0,0,0c0,0,0,0,0,0c-0.1,0-0.2-0.2-0.2-0.3c0-0.1,0-0.2,0-0.3c0,0,0,0,0,0
		C22.8,16.2,21.9,15.2,20.7,15.2z M27,18.8c0,0.1-0.1,0.2-0.2,0.2c0,0,0,0,0,0c-0.1,0-0.2-0.1-0.2-0.3c0-0.2,0-0.5,0-0.7
		c0-3.6-2.9-6.6-6.6-6.6h-0.4c-0.1,0-0.3-0.1-0.3-0.3c0,0,0,0,0,0c0-0.1,0.1-0.3,0.2-0.3H20c3.9,0.1,7,3.2,7,7.1
		C27,18.3,27,18.6,27,18.8z"/>
	<path class="st0" d="M20,0C9,0,0,9,0,20s9,20,20,20s20-9,20-20S31,0,20,0z M33.2,15.8l-0.1,5.9c0,5.3-4.8,8.9-10.1,8.9h-5.2
		l-2.7,3.1c-0.4,0.5-1.2,0.5-1.6,0.1c-0.2-0.2-0.4-0.5-0.4-0.8v-3c-3.8-1.4-6.3-5-6.4-9V16c0-5.5,3.2-9.6,9.9-9.9
		c1.4-0.1,5.7,0,5.7,0C29.4,6,33.2,10,33.2,15.8L33.2,15.8z"/>
</g>
</svg>
